# xmcd CD database file
#
# Track frame offsets:
#	150
#	21097
#	27080
#	38805
#	48290
#	59789
#	63861
#	77802
#	79545
#	87059
#	89839
#	95222
#	109335
#	112416
#	138705
#	161291
#	173112
#	176857
#	178641
#	189336
#	191339
#	205509
#	207955
#	211242
#	213276
#	230130
#	234211
#	238355
#	244100
#	247933
#	251747
#	261076
#
# Disc length: 3549 seconds
#
# Revision: 0
# Processed by: cddbd v1.5.2PL0 Copyright (c) Steve Scherf et al.
# Submitted via: CDex 1.70beta2
#
DISCID=c80ddb20
DTITLE=Camerata Vocalis Tübingen - Engelsgesänge
DYEAR=2006
DGENRE=Geistliche Chormusik acapella
TTITLE0=Peter Tschaikowsky: Cherubinischer Gesang op. 41,6
TTITLE1=Goethe: Faust - Prolog im Himmel
TTITLE2=Edgar Tinel: Wacht auf, der Engel Gottes spricht op.46,1
TTITLE3=Bibel: Verkündigung, Lukas 1, 26-38
TTITLE4=Johannes Brahms: Der englische Gruß op.22,4
TTITLE5=Bibel: Hirtenverkündigung, Lukas 2, 8-14
TTITLE6=Orlando di Lasso: Angelus ad pastorem ait à 5
TTITLE7=Rose Ausländer: Der Engel in Dir
TTITLE8=J.S.Bach: Gloria sei Dir gesungen BWV 140,7
TTITLE9=Essener: Friedensevangelium
TTITLE10=Bibel: Auferstehung, Matthäus 28, 1-7
TTITLE11=Giovanni Gabrieli: Angelus Domini descendit à 8
TTITLE12=Hans Arp: Engel
TTITLE13=Maceij Zoltowski: Victimae paschali laudes (19959
TTITLE14=Jacques Prévert: Der Straßenkehrer
TTITLE15=Tobias Hiller: Luzifer - De profundis ( 2006)
TTITLE16=Ingo Cesaro: Mein unerreichter Schutzengel
TTITLE17=Huber von Herreweghen: Möve
TTITLE18=Tobias Hiller: Rafael (2006)
TTITLE19=Günther Grass: Mein Schutzengel
TTITLE20=Felix Mendelssohn: Denn er hat seinen Engeln befohlen über Dir
TTITLE21=Yvan Goll: Der Engel
TTITLE22=Rainer Maria Rilke: Ich ließ meinen Engel
TTITLE23=Christian Morgenstern: Stör' nicht den Schlaf
TTITLE24=Josef Rheinberger: Angelis suis op. 140,5 ( Baritonsolo: Till Weibel)
TTITLE25=Heinrich Heine: Die Engel
TTITLE26=Hans Magnus Enzensberger: Die Visite
TTITLE27=Francis Poulenc: La blanche neige
TTITLE28=Nelly Sachs: Chor der Wolken
TTITLE29=Hans Erich Nossack: Der Widersacher
TTITLE30=J.S.Bach: Ach Herr, laß Dein lieb Engelein BWV 245,40
TTITLE31=Peter Härtling: Kinderengel ( Bonus)
EXTD=YEAR: 2006
EXTT0=
EXTT1=
EXTT2=
EXTT3=
EXTT4=
EXTT5=
EXTT6=
EXTT7=
EXTT8=
EXTT9=
EXTT10=
EXTT11=
EXTT12=
EXTT13=
EXTT14=
EXTT15=
EXTT16=
EXTT17=
EXTT18=
EXTT19=
EXTT20=
EXTT21=
EXTT22=
EXTT23=
EXTT24=
EXTT25=
EXTT26=
EXTT27=
EXTT28=
EXTT29=
EXTT30=
EXTT31=
PLAYORDER=
